PathFileType	4	(X/Y/Z)	c:/Users/goper/Files/vsCode/490R/osim_files/C10/C10_SSWS_04.trc
DataRate	CameraRate	NumFrames	NumMarkers	Units                	OrigDataRate	OrigDataStartFrame	OrigNumFrames
250.00	250.00	9	36	mm	250.0	1653	2203
                Frame#	Time	LPSIS			LASIS			LTH1			LTH2			LTH3			LTH4			LLFE			LMFE			LSH1			LSH2			LSH3			LSH4			LLMAL			LMMAL			LCAL			LMTP5			LTOE			LMTP1			RPSIS			RASIS			RTH1			RTH2			RTH3			RTH4			RLFE			RMFE			RSH1			RSH2			RSH3			RSH4			RLMAL			RMMAL			RCAL			RMTP1			RTOE			RMTP5		
		X1	Y1	Z1	X2	Y2	Z2	X3	Y3	Z3	X4	Y4	Z4	X5	Y5	Z5	X6	Y6	Z6	X7	Y7	Z7	X8	Y8	Z8	X9	Y9	Z9	X10	Y10	Z10	X11	Y11	Z11	X12	Y12	Z12	X13	Y13	Z13	X14	Y14	Z14	X15	Y15	Z15	X16	Y16	Z16	X17	Y17	Z17	X18	Y18	Z18	X19	Y19	Z19	X20	Y20	Z20	X21	Y21	Z21	X22	Y22	Z22	X23	Y23	Z23	X24	Y24	Z24	X25	Y25	Z25	X26	Y26	Z26	X27	Y27	Z27	X28	Y28	Z28	X29	Y29	Z29	X30	Y30	Z30	X31	Y31	Z31	X32	Y32	Z32	X33	Y33	Z33	X34	Y34	Z34	X35	Y35	Z35	X36	Y36	Z36

1653	6.60800	-2321.16382	1018.51764	318.62469	-2487.07861	1008.29816	447.94958	-2492.38892	777.48047	493.06979	-2519.64185	737.06165	490.79813	-2549.13745	803.90826	474.10352	-2565.66406	760.26831	472.66867	-2638.41626	523.74469	424.37482	-2649.08521	517.29840	305.18903	-2622.14087	427.19867	423.27509	-2605.12842	387.79291	427.65131	-2551.47461	431.05118	427.46463	-2555.60547	401.56665	435.26785	-2495.69775	132.30879	395.65210	0.00000	0.00000	0.00000	-2421.52588	90.31240	340.76553	-2582.33374	53.28014	429.38406	-2647.50171	64.40157	377.40573	0.00000	0.00000	0.00000	-2328.56934	1027.28992	237.35980	-2488.44727	1006.25763	114.49184	0.00000	0.00000	0.00000	-2411.17212	702.62195	85.14263	0.00000	0.00000	0.00000	-2465.10083	705.96179	84.46226	-2429.15625	481.21619	158.97804	-2445.07812	482.69208	272.68188	-2350.37891	393.59225	151.06241	-2352.03394	349.97745	152.64922	-2414.11011	385.84360	158.20407	-2402.62622	338.23459	170.13251	-2354.18506	87.45859	217.89070	-2373.30640	99.73724	297.43271	-2296.47241	45.11405	260.11691	0.00000	0.00000	0.00000	-2519.19287	49.31406	251.80737	-2471.98364	34.64898	188.20528
1654	6.61200	0.00000	0.00000	0.00000	-2491.70605	1008.00067	447.62552	-2497.71606	777.39093	493.02814	-2525.24902	737.09601	490.74838	-2554.32373	804.04236	473.69525	-2571.03296	760.47211	472.32700	-2644.31055	524.09583	423.84921	-2654.60254	517.61017	304.76810	-2629.17114	427.47122	422.88770	-2613.74268	387.50772	427.01788	-2560.00366	430.87283	427.06943	-2564.24609	400.12155	434.69376	-2511.10449	129.36925	394.79681	0.00000	0.00000	0.00000	-2437.90674	85.95639	339.71957	-2599.62866	52.68207	429.08423	-2664.70801	64.86505	376.74896	0.00000	0.00000	0.00000	-2332.84790	1026.92078	237.82127	-2492.36084	1005.71930	114.09431	0.00000	0.00000	0.00000	-2414.50195	702.42511	85.01931	0.00000	0.00000	0.00000	-2468.33032	705.52240	84.41513	-2431.07300	480.94565	158.88843	-2446.97681	482.44189	272.60135	-2352.66968	393.54404	151.06650	-2353.43726	350.03436	152.50121	-2415.52637	385.82153	158.23686	0.00000	0.00000	0.00000	-2354.26147	87.50731	217.87769	-2373.37549	99.79364	297.43433	-2296.56567	45.08071	260.14380	0.00000	0.00000	0.00000	-2519.18457	49.22702	251.81253	-2471.97070	34.65450	188.25414
1655	6.61600	-2336.34937	1016.15778	321.86023	-2496.47144	1007.68732	447.32407	-2502.97046	777.11652	493.01282	-2530.81030	736.95142	490.69427	-2559.40283	804.02960	473.46289	-2576.35132	760.56781	472.03397	-2650.03149	524.27454	423.36179	-2660.05811	517.81091	304.41150	-2638.35596	427.24377	422.06876	-2622.25781	387.29886	426.42795	-2568.46802	430.65274	426.67899	-2572.71387	398.62711	434.14062	-2526.54541	126.59545	394.03250	0.00000	0.00000	0.00000	-2457.01587	80.62790	339.13037	-2616.50830	51.17815	427.75287	0.00000	0.00000	0.00000	0.00000	0.00000	0.00000	-2337.19531	1026.56555	238.34729	-2496.27783	1005.19952	113.73171	0.00000	0.00000	0.00000	-2417.79980	702.21667	84.91539	0.00000	0.00000	0.00000	-2471.56714	705.10895	84.35097	-2432.97217	480.70541	158.83723	-2448.81372	482.16196	272.48148	-2353.48755	393.70071	150.77760	-2354.79028	350.07236	152.42415	-2417.01318	385.82629	158.20850	-2409.00659	345.70862	157.87201	-2353.56714	87.72210	217.63725	-2373.47705	99.79907	297.46274	-2296.65601	45.03027	260.19470	0.00000	0.00000	0.00000	-2519.24585	49.19334	251.84874	-2471.93066	34.68480	188.24057
1656	6.62000	0.00000	0.00000	0.00000	-2501.08472	1007.23834	447.05511	-2508.41895	776.79645	492.98541	-2536.38354	736.73425	490.60474	-2564.49707	803.88434	473.16135	-2581.65771	760.53943	471.66589	-2655.64917	524.32880	422.87454	-2665.53906	517.99042	304.03003	-2648.53467	425.17072	420.16452	-2616.58545	389.44806	424.64200	-2576.86450	430.38989	426.29343	0.00000	0.00000	0.00000	-2541.95850	123.88660	393.30359	0.00000	0.00000	0.00000	-2468.55151	79.21200	339.27487	-2633.84009	50.98689	427.52753	-2653.46997	16.47042	353.18500	0.00000	0.00000	0.00000	-2340.33276	1026.11182	238.61281	-2500.14038	1004.62958	113.35764	0.00000	0.00000	0.00000	-2421.12695	701.99567	84.79690	0.00000	0.00000	0.00000	-2474.79541	704.66803	84.29488	-2434.87598	480.42548	158.76512	-2450.56104	481.87695	272.37820	-2355.64331	393.65393	150.80011	-2356.12720	350.12299	152.33270	-2418.45752	385.78339	158.13022	-2410.23682	345.53891	157.79008	-2353.70361	87.73972	217.67055	-2373.57642	99.81606	297.47372	-2296.67505	44.98942	260.18268	0.00000	0.00000	0.00000	-2519.26636	49.13074	251.85471	-2471.92944	34.69226	188.25871
1657	6.62400	0.00000	0.00000	0.00000	-2505.81958	1006.78815	446.81885	-2513.63232	776.40765	492.95184	-2541.98682	736.43036	490.44626	-2569.67480	803.72168	472.83127	-2586.94434	760.36902	471.33612	-2661.16040	524.23309	422.36389	-2670.95898	518.02209	303.66559	-2644.46411	432.08685	423.54120	-2625.27783	388.99429	423.84470	-2585.19092	430.08344	425.91302	0.00000	0.00000	0.00000	-2557.39624	121.41077	392.57263	0.00000	0.00000	0.00000	-2484.69287	75.57337	338.49182	-2652.95142	52.64742	427.49829	0.00000	0.00000	0.00000	0.00000	0.00000	0.00000	-2346.03711	1025.92090	239.39340	-2504.18066	1004.09973	113.00867	0.00000	0.00000	0.00000	-2424.36938	701.78442	84.61691	0.00000	0.00000	0.00000	-2477.99805	704.24042	84.20067	-2436.72485	480.16129	158.62370	-2452.39697	481.58646	272.27176	-2356.40942	393.86258	150.55157	-2357.44995	350.18915	152.19327	-2419.82373	385.71585	158.04138	-2411.44482	345.39233	157.66765	-2353.78906	87.82011	217.65215	-2373.66528	99.86738	297.45285	-2296.66772	45.01995	260.16016	-2486.26782	41.29625	296.99695	-2519.28784	49.08863	251.89392	-2471.88184	34.67979	188.21600
1658	6.62800	0.00000	0.00000	0.00000	-2510.49561	1006.19977	446.57272	-2519.11694	775.95227	492.82587	-2547.52295	735.94305	490.27789	-2575.55103	803.84491	473.54233	-2592.26685	760.09906	470.95209	-2666.53003	523.98273	421.86642	-2676.34180	518.00861	303.23602	-2651.83398	432.14215	422.90948	-2633.81934	388.63593	422.96063	-2593.44482	429.73245	425.53787	0.00000	0.00000	0.00000	-2572.85034	119.04260	391.89255	0.00000	0.00000	0.00000	-2498.32983	73.00418	338.59454	-2668.05298	50.24279	425.96826	-2722.20190	66.16178	371.05261	0.00000	0.00000	0.00000	-2349.00586	1025.54199	239.57991	-2508.20483	1003.51178	112.63702	0.00000	0.00000	0.00000	-2427.62451	701.56995	84.42363	0.00000	0.00000	0.00000	-2481.18701	703.81079	84.13825	-2438.59961	479.87866	158.52838	-2454.22144	481.25516	272.18158	-2358.51270	393.85950	150.57921	-2358.54932	350.25815	152.09259	-2421.15405	385.67563	157.98779	-2412.59839	345.21158	157.56136	-2353.91455	87.85544	217.62283	-2373.80688	99.86664	297.45697	-2296.59888	45.05106	260.12784	0.00000	0.00000	0.00000	-2519.33887	49.01729	251.89377	-2471.87524	34.67377	188.20499
1659	6.63200	0.00000	0.00000	0.00000	-2515.22705	1005.60181	446.36823	-2524.53418	775.34589	492.79645	-2553.13989	735.46021	490.06317	-2580.74585	803.40790	473.19067	-2597.62012	759.71716	470.51425	-2671.84546	523.61023	421.30945	-2681.80664	517.97736	302.74481	-2659.14648	432.13077	422.31503	-2655.46655	386.02423	424.16483	-2601.62354	429.33594	425.16815	0.00000	0.00000	0.00000	-2588.27783	116.87404	391.34619	0.00000	0.00000	0.00000	-2513.94092	69.89681	338.16284	-2685.12036	50.16113	425.28046	0.00000	0.00000	0.00000	0.00000	0.00000	0.00000	-2354.00879	1025.40210	240.16109	-2512.24512	1002.94019	112.30143	0.00000	0.00000	0.00000	-2431.02051	701.31189	84.31943	0.00000	0.00000	0.00000	-2484.37817	703.34760	83.99811	-2440.47021	479.58966	158.34947	-2456.07251	480.93228	272.06055	-2359.94873	393.94275	150.49782	-2359.86353	350.38626	152.00813	-2422.43774	385.55283	157.91518	-2413.86230	345.06403	157.42635	-2354.05688	87.92270	217.63223	-2373.95825	99.89647	297.48746	-2296.64404	45.05311	260.12006	0.00000	0.00000	0.00000	-2519.36572	48.93105	251.85387	-2471.90063	34.64949	188.18596
1660	6.63600	0.00000	0.00000	0.00000	-2520.04492	1004.95361	446.12997	-2530.03198	774.70703	492.64542	-2558.72925	734.90881	489.76846	-2585.44604	802.55804	471.91962	-2602.97388	759.23383	470.08212	-2677.12598	523.09924	420.74060	-2687.04980	517.74786	302.28391	-2666.46167	432.18826	421.61932	-2661.53149	386.28229	423.10239	-2609.72461	428.89307	424.80402	0.00000	0.00000	0.00000	-2604.04492	115.00541	390.56522	0.00000	0.00000	0.00000	-2529.41943	67.02092	337.75906	-2702.21436	50.46706	424.46603	-2765.89014	71.78446	372.51941	0.00000	0.00000	0.00000	-2359.56836	1025.10181	240.83603	-2516.42334	1002.41833	111.99806	0.00000	0.00000	0.00000	-2434.14380	701.17328	84.12741	0.00000	0.00000	0.00000	-2487.59082	702.91705	83.86826	-2442.29810	479.28427	158.22791	-2458.00635	480.60565	271.88589	-2360.65820	394.16855	150.26021	-2361.09009	350.49814	151.94899	-2423.73730	385.44867	157.85780	-2415.00879	344.88956	157.30495	-2354.18457	87.99889	217.60286	-2374.13892	99.91246	297.45551	-2296.65625	45.09022	260.06717	0.00000	0.00000	0.00000	-2520.32300	50.09776	250.23314	-2471.91968	34.59680	188.17302
1661	6.64000	0.00000	0.00000	0.00000	-2524.89404	1004.25439	445.91730	-2535.38257	773.90900	492.50415	-2564.25415	734.14709	489.45480	-2590.73096	801.88788	471.58179	-2608.29028	758.60480	469.58438	-2682.44507	522.55017	420.08878	-2692.36743	517.53564	301.66583	-2673.56616	432.17664	420.96814	-2669.30688	385.86169	422.58304	-2617.74561	428.40286	424.44565	0.00000	0.00000	0.00000	-2619.47949	113.21391	390.06390	0.00000	0.00000	0.00000	-2544.89526	64.30264	337.46933	-2719.09155	50.43031	423.16037	-2782.45337	73.79383	371.72650	0.00000	0.00000	0.00000	-2364.18848	1024.86621	241.31007	-2520.59741	1001.85870	111.70811	0.00000	0.00000	0.00000	-2437.31250	700.94702	83.98089	0.00000	0.00000	0.00000	-2490.75415	702.46252	83.68741	-2444.13818	479.04410	158.03722	-2460.00977	480.26364	271.73053	-2362.03613	394.29352	150.18820	-2362.23877	350.62070	151.89590	-2425.00049	385.34818	157.75009	-2416.14429	344.72382	157.13934	-2354.28442	88.07984	217.57938	-2374.32568	99.93777	297.43625	-2296.67456	45.10807	260.05295	0.00000	0.00000	0.00000	-2519.09448	50.68530	250.94482	-2471.95776	34.59019	188.14360
